<?xml version="1.0" encoding="utf-8"?>
<!-- Generator: Adobe Illustrator 22.1.0, SVG Export Plug-In . SVG Version: 6.00 Build 0)  -->
<svg version="1.1" id="Capa_1" xmlns="http://www.w3.org/2000/svg" xmlns:xlink="http://www.w3.org/1999/xlink" x="0px" y="0px"
	 viewBox="0 0 284.9 284.9" style="enable-background:new 0 0 284.9 284.9;" xml:space="preserve">
<style type="text/css">
	.st0{fill:#C1C1C1;}
</style>
<g>
	<path class="st0" d="M285,201.8c0-2.5-0.9-4.7-2.8-6.6l-133.1-133c-1.9-1.9-4.1-2.9-6.6-2.9s-4.7,1-6.6,2.9l-133,133
		C1,197.1,0,199.3,0,201.8s0.9,4.7,2.9,6.6l14.2,14.3c1.9,1.9,4.1,2.9,6.6,2.9s4.7-1,6.6-2.9l112.2-112.2l112.1,112.2
		c1.9,1.9,4.1,2.9,6.6,2.9s4.7-1,6.6-2.9l14.3-14.3C284,206.5,284.9,204.3,285,201.8z"/>
</g>
</svg>
