<?xml version="1.0" encoding="utf-8"?>
<!-- Generator: Adobe Illustrator 22.1.0, SVG Export Plug-In . SVG Version: 6.00 Build 0)  -->
<svg version="1.1" id="Capa_1" xmlns="http://www.w3.org/2000/svg" xmlns:xlink="http://www.w3.org/1999/xlink" x="0px" y="0px"
	 viewBox="0 0 284.9 285.9" style="enable-background:new 0 0 284.9 285.9;" xml:space="preserve">
<style type="text/css">
	.st0{fill:#151F24;}
</style>
<g>
	<path class="st0" d="M76.6,3.3L62.3,17.6c-1.9,1.9-2.9,4.1-2.9,6.6s1,4.7,2.9,6.6l112.2,112.1L62.3,255.1c-1.9,1.9-2.9,4.1-2.9,6.6
		s1,4.7,2.9,6.6l14.3,14.2c1.9,2,4.1,2.9,6.6,2.9s4.7-1,6.6-2.9l133-133c1.9-1.9,2.9-4.1,2.9-6.6s-1-4.7-2.9-6.6L89.8,3.2
		c-1.9-1.9-4.1-2.8-6.6-2.8C80.7,0.6,78.5,1.4,76.6,3.3z"/>
</g>
</svg>
