<?xml version="1.0" encoding="utf-8"?>
<!-- Generator: Adobe Illustrator 22.1.0, SVG Export Plug-In . SVG Version: 6.00 Build 0)  -->
<svg version="1.1" id="Слой_1" xmlns="http://www.w3.org/2000/svg" xmlns:xlink="http://www.w3.org/1999/xlink" x="0px" y="0px"
	 viewBox="0 0 450 385.8" style="enable-background:new 0 0 450 385.8;" xml:space="preserve">
<style type="text/css">
	.st0{fill:none;stroke:#22292E;stroke-width:7;stroke-miterlimit:10;}
	.st1{fill:#FFFFFF;}
	.st2{clip-path:url(#SVGID_4_);}
	.st3{fill:#CECECE;}
	.st4{fill:none;stroke:#FFFFFF;stroke-miterlimit:10;}
	.st5{fill:none;stroke:#22292E;stroke-width:3;stroke-miterlimit:10;}
	.st6{clip-path:url(#SVGID_8_);}
	.st7{fill:#2684FE;}
	.st8{fill:none;stroke:#22292E;stroke-width:5;stroke-miterlimit:10;}
</style>
<g id="tv">
	<g>
		<g>
			<g>
				<path class="st0" d="M69.7,343.4c-5.5,0-7.4,3.7-4.2,8.2l15.8,22.5c3.2,4.5,10.3,8.2,15.8,8.2h257c5.5,0,12.6-3.7,15.8-8.2
					l17.3-24.6c3.2-4.5,1.3-8.2-4.2-8.1L69.7,343.4z"/>
			</g>
			<g>
				<g>
					<path id="SVGID_5_" class="st1" d="M215.4,114.7L215.4,114.7c-3.1,3.1-8.2,3.1-11.3,0l-97.6-97.6c-3.1-3.1-3.1-8.2,0-11.3l0,0
						c3.1-3.1,8.2-3.1,11.3,0l97.6,97.6C218.6,106.5,218.6,111.6,215.4,114.7z"/>
				</g>
				<g>
					<defs>
						<path id="SVGID_3_" d="M215.4,114.7L215.4,114.7c-3.1,3.1-8.2,3.1-11.3,0l-97.6-97.6c-3.1-3.1-3.1-8.2,0-11.3l0,0
							c3.1-3.1,8.2-3.1,11.3,0l97.6,97.6C218.6,106.5,218.6,111.6,215.4,114.7z"/>
					</defs>
					<clipPath id="SVGID_4_">
						<use xlink:href="#SVGID_3_"  style="overflow:visible;"/>
					</clipPath>
					<g class="st2">
						<path class="st3" d="M125.8,2.5c-4.3-3.4-10.3-4.2-13.3-1.7s-2.3,7.7,1.6,11.6L190,88.3c3.9,3.9,10.3,3.9,14.1,0l5.9-5.9
							c3.9-3.9,3.6-9.9-0.7-13.3L125.8,2.5z"/>
						<path class="st4" d="M125.8,2.5c-4.3-3.4-10.3-4.2-13.3-1.7s-2.3,7.7,1.6,11.6L190,88.3c3.9,3.9,10.3,3.9,14.1,0l5.9-5.9
							c3.9-3.9,3.6-9.9-0.7-13.3L125.8,2.5z"/>
					</g>
				</g>
				<g>
					<path id="SVGID_1_" class="st5" d="M215.4,114.7L215.4,114.7c-3.1,3.1-8.2,3.1-11.3,0l-97.6-97.6c-3.1-3.1-3.1-8.2,0-11.3l0,0
						c3.1-3.1,8.2-3.1,11.3,0l97.6,97.6C218.6,106.5,218.6,111.6,215.4,114.7z"/>
				</g>
			</g>
			<g>
				<g>
					<path id="SVGID_7_" class="st1" d="M224.6,112.7L224.6,112.7c-3.1-3.1-3.1-8.2,0-11.3l97.6-97.6c3.1-3.1,8.2-3.1,11.3,0l0,0
						c3.1,3.1,3.1,8.2,0,11.3l-97.6,97.6C232.8,115.9,227.7,115.9,224.6,112.7z"/>
				</g>
				<g>
					<defs>
						<path id="SVGID_6_" d="M224.6,112.7L224.6,112.7c-3.1-3.1-3.1-8.2,0-11.3l97.6-97.6c3.1-3.1,8.2-3.1,11.3,0l0,0
							c3.1,3.1,3.1,8.2,0,11.3l-97.6,97.6C232.8,115.9,227.7,115.9,224.6,112.7z"/>
					</defs>
					<clipPath id="SVGID_8_">
						<use xlink:href="#SVGID_6_"  style="overflow:visible;"/>
					</clipPath>
					<g class="st6">
						<path class="st3" d="M245.5,103.8c3,3.6,8.6,3.3,12.4-0.7L347,10.5c3.8-4,4-9.5,0.4-12.2s-9.6-1.8-13.5,2.2L247,90.1
							C243.1,94.1,242.5,100.2,245.5,103.8z"/>
					</g>
				</g>
				<g>
					<path id="SVGID_2_" class="st5" d="M224.6,112.7L224.6,112.7c-3.1-3.1-3.1-8.2,0-11.3l97.6-97.6c3.1-3.1,8.2-3.1,11.3,0l0,0
						c3.1,3.1,3.1,8.2,0,11.3l-97.6,97.6C232.8,115.9,227.7,115.9,224.6,112.7z"/>
				</g>
			</g>
			<g>
				<path class="st7" d="M447.5,344.3c0,5.5-4.5,10-10,10h-425c-5.5,0-10-4.5-10-10v-252c0-5.5,4.5-10,10-10h425c5.5,0,10,4.5,10,10
					V344.3z"/>
				<path class="st8" d="M447.5,344.3c0,5.5-4.5,10-10,10h-425c-5.5,0-10-4.5-10-10v-252c0-5.5,4.5-10,10-10h425c5.5,0,10,4.5,10,10
					V344.3z"/>
			</g>
			<g>
				<path class="st1" d="M275.5,261.8c0,5.5-4.5,10-10,10h-88c-5.5,0-10-4.5-10-10v-11c0-5.5,4.5-10,10-10h88c5.5,0,10,4.5,10,10
					V261.8z"/>
			</g>
			<g>
				<circle class="st1" cx="120" cy="190.3" r="25"/>
			</g>
			<g>
				<circle class="st1" cx="319" cy="192.3" r="25"/>
			</g>
		</g>
	</g>
</g>
</svg>
