<?xml version="1.0" standalone="no"?>
<!DOCTYPE svg PUBLIC "-//W3C//DTD SVG 20010904//EN"
 "http://www.w3.org/TR/2001/REC-SVG-20010904/DTD/svg10.dtd">
<svg version="1.0" xmlns="http://www.w3.org/2000/svg"
 width="700.000000pt" height="700.000000pt" viewBox="0 0 700.000000 700.000000"
 preserveAspectRatio="xMidYMid meet">
<metadata>
Created by potrace 1.11, written by Peter Selinger 2001-2013
</metadata>
<g transform="translate(0.000000,700.000000) scale(0.100000,-0.100000)"
fill="#000000" stroke="none">
<path d="M4115 5280 l-400 -400 -260 0 -260 0 -390 390 -391 390 -42 0 c-68 0
-114 -60 -97 -127 4 -18 118 -139 318 -340 l311 -313 -777 0 c-842 0 -815 2
-867 -55 l-25 -27 -3 -1325 c-2 -1316 -2 -1326 18 -1358 38 -62 57 -65 362
-65 l274 0 79 -112 c60 -84 93 -120 129 -143 l49 -30 1367 -3 c1504 -2 1400
-7 1474 59 19 16 67 75 106 129 l70 99 279 3 c263 3 281 4 307 23 15 11 35 36
46 55 18 34 18 83 16 1345 l-3 1310 -24 34 c-46 64 -7 61 -933 61 l-842 0 321
323 c176 177 324 333 328 345 21 68 -27 132 -99 132 -40 0 -44 -4 -441 -400z
m491 335 c8 -13 14 -31 12 -40 -2 -9 -156 -169 -343 -356 l-340 -339 -85 0
-85 0 380 380 c342 342 384 380 413 380 22 0 36 -7 48 -25z m-1832 -365 l371
-370 -90 0 -90 0 -328 328 c-210 211 -327 335 -327 348 0 35 28 64 63 64 27 0
72 -41 401 -370z m-206 -1273 c77 -36 142 -139 142 -227 0 -50 -30 -126 -65
-167 -93 -108 -255 -118 -360 -22 -61 56 -85 110 -85 190 1 128 80 221 215
252 33 8 108 -5 153 -26z m2027 -26 c204 -115 154 -421 -77 -473 -164 -36
-329 123 -302 292 11 67 62 141 123 177 29 17 65 34 80 36 52 9 126 -4 176
-32z m-599 -745 c34 -34 34 -35 34 -126 0 -91 0 -92 -34 -126 l-35 -35 -485 3
-486 3 -27 28 c-27 26 -28 32 -28 126 0 105 10 131 60 152 11 4 233 8 493 8
l474 1 34 -34z m1034 -1161 c0 -3 -23 -39 -50 -80 -87 -129 83 -116 -1469
-113 l-1340 3 -28 21 c-29 22 -85 90 -116 143 l-18 31 1510 0 c831 0 1511 -2
1511 -5z"/>
<path d="M6741 2564 c0 -11 3 -14 6 -6 3 7 2 16 -1 19 -3 4 -6 -2 -5 -13z"/>
<path d="M291 2494 c0 -11 3 -14 6 -6 3 7 2 16 -1 19 -3 4 -6 -2 -5 -13z"/>
<path d="M6731 2484 c0 -11 3 -14 6 -6 3 7 2 16 -1 19 -3 4 -6 -2 -5 -13z"/>
<path d="M301 2424 c0 -11 3 -14 6 -6 3 7 2 16 -1 19 -3 4 -6 -2 -5 -13z"/>
<path d="M6722 2410 c0 -14 2 -19 5 -12 2 6 2 18 0 25 -3 6 -5 1 -5 -13z"/>
<path d="M312 2350 c0 -14 2 -19 5 -12 2 6 2 18 0 25 -3 6 -5 1 -5 -13z"/>
<path d="M6712 2340 c0 -14 2 -19 5 -12 2 6 2 18 0 25 -3 6 -5 1 -5 -13z"/>
<path d="M322 2290 c0 -14 2 -19 5 -12 2 6 2 18 0 25 -3 6 -5 1 -5 -13z"/>
<path d="M6682 2196 c-44 -207 -165 -541 -264 -726 -241 -451 -638 -788 -1170
-994 -451 -174 -1268 -276 -1980 -246 -397 16 -675 48 -1013 115 -284 57 -474
119 -699 232 -240 120 -415 243 -585 412 -284 281 -478 648 -607 1146 -39 152
-45 139 -9 -20 89 -393 244 -754 432 -1004 76 -102 259 -289 358 -366 186
-145 473 -302 695 -380 605 -211 1670 -285 2534 -174 456 58 780 142 1054 274
570 275 899 634 1122 1225 72 190 175 588 157 606 -2 2 -13 -43 -25 -100z"/>
</g>
</svg>
